<svg width="261" height="48" viewBox="0 0 261 48" fill="none" xmlns="http://www.w3.org/2000/svg">
<path d="M78.7917 21.2904C77.7616 22.9482 77.1667 24.9046 77.1667 27C77.1667 32.983 82.0169 37.8333 88 37.8333C89.1323 37.8333 90.2241 37.6596 91.25 37.3374M97.0491 32.9583C98.1768 31.2489 98.8333 29.2011 98.8333 27C98.8333 21.0169 93.983 16.1667 88 16.1667C86.8677 16.1667 85.776 16.3404 84.75 16.6626" stroke="#454144" stroke-width="1.5" stroke-linecap="round" stroke-linejoin="round"/>
<path d="M80.4167 21.5833C81.6133 21.5833 82.5833 20.6133 82.5833 19.4167C82.5833 18.22 81.6133 17.25 80.4167 17.25C79.22 17.25 78.25 18.22 78.25 19.4167C78.25 20.6133 79.22 21.5833 80.4167 21.5833Z" stroke="#454144" stroke-width="1.5" stroke-linecap="round" stroke-linejoin="round"/>
<path d="M95.5833 36.75C96.7799 36.75 97.75 35.7799 97.75 34.5833C97.75 33.3867 96.7799 32.4167 95.5833 32.4167C94.3867 32.4167 93.4167 33.3867 93.4167 34.5833C93.4167 35.7799 94.3867 36.75 95.5833 36.75Z" stroke="#454144" stroke-width="1.5" stroke-linecap="round" stroke-linejoin="round"/>
<path d="M83.6667 32.4167C84.8633 32.4167 85.8333 31.4466 85.8333 30.25C85.8333 29.0534 84.8633 28.0833 83.6667 28.0833C82.47 28.0833 81.5 29.0534 81.5 30.25C81.5 31.4466 82.47 32.4167 83.6667 32.4167Z" stroke="#454144" stroke-width="1.5" stroke-linecap="round" stroke-linejoin="round"/>
<path d="M88 32.4167C90.9915 32.4167 93.4167 29.9915 93.4167 27C93.4167 24.0085 90.9915 21.5833 88 21.5833C85.0085 21.5833 82.5833 24.0085 82.5833 27C82.5833 27.371 82.6206 27.7333 82.6917 28.0833" stroke="#454144" stroke-width="1.5" stroke-linecap="round" stroke-linejoin="round"/>
<path d="M88.009 27H88" stroke="#454144" stroke-width="2" stroke-linecap="round" stroke-linejoin="round"/>
<path d="M14.1016 14.4258L6.36719 38H0.136719L10.7031 9.5625H14.668L14.1016 14.4258ZM20.5273 38L12.7734 14.4258L12.1484 9.5625H16.1523L26.7773 38H20.5273ZM20.1758 27.4141V32.0039H5.15625V27.4141H20.1758ZM40.4883 32.1602C40.4883 31.7565 40.3711 31.3919 40.1367 31.0664C39.9023 30.7409 39.4661 30.4414 38.8281 30.168C38.2031 29.8815 37.2982 29.6211 36.1133 29.3867C35.0456 29.1523 34.0495 28.8594 33.125 28.5078C32.2135 28.1432 31.4193 27.707 30.7422 27.1992C30.0781 26.6914 29.5573 26.0924 29.1797 25.4023C28.8021 24.6992 28.6133 23.8984 28.6133 23C28.6133 22.1146 28.8021 21.2812 29.1797 20.5C29.5703 19.7188 30.1237 19.0286 30.8398 18.4297C31.569 17.8177 32.4544 17.3424 33.4961 17.0039C34.5508 16.6523 35.7357 16.4766 37.0508 16.4766C38.8867 16.4766 40.4622 16.7695 41.7773 17.3555C43.1055 17.9414 44.1211 18.7487 44.8242 19.7773C45.5404 20.793 45.8984 21.9518 45.8984 23.2539H40.2734C40.2734 22.707 40.1562 22.2188 39.9219 21.7891C39.7005 21.3464 39.349 21.0013 38.8672 20.7539C38.3984 20.4935 37.7865 20.3633 37.0312 20.3633C36.4062 20.3633 35.8659 20.474 35.4102 20.6953C34.9544 20.9036 34.6029 21.1901 34.3555 21.5547C34.1211 21.9062 34.0039 22.2969 34.0039 22.7266C34.0039 23.0521 34.069 23.3451 34.1992 23.6055C34.3424 23.8529 34.5703 24.0807 34.8828 24.2891C35.1953 24.4974 35.599 24.6927 36.0938 24.875C36.6016 25.0443 37.2266 25.2005 37.9688 25.3438C39.4922 25.6562 40.8529 26.0664 42.0508 26.5742C43.2487 27.069 44.1992 27.7461 44.9023 28.6055C45.6055 29.4518 45.957 30.5651 45.957 31.9453C45.957 32.8828 45.7487 33.7422 45.332 34.5234C44.9154 35.3047 44.3164 35.9883 43.5352 36.5742C42.7539 37.1471 41.8164 37.5964 40.7227 37.9219C39.6419 38.2344 38.4245 38.3906 37.0703 38.3906C35.1042 38.3906 33.4375 38.0391 32.0703 37.3359C30.7161 36.6328 29.6875 35.7409 28.9844 34.6602C28.2943 33.5664 27.9492 32.4466 27.9492 31.3008H33.2812C33.3073 32.069 33.5026 32.6875 33.8672 33.1562C34.2448 33.625 34.7201 33.9635 35.293 34.1719C35.8789 34.3802 36.5104 34.4844 37.1875 34.4844C37.9167 34.4844 38.5221 34.3867 39.0039 34.1914C39.4857 33.9831 39.8503 33.7096 40.0977 33.3711C40.3581 33.0195 40.4883 32.6159 40.4883 32.1602ZM59.9609 16.8672V20.8516H47.6562V16.8672H59.9609ZM50.7031 11.6523H56.3281V31.6328C56.3281 32.2448 56.4062 32.7135 56.5625 33.0391C56.7318 33.3646 56.9792 33.5924 57.3047 33.7227C57.6302 33.8398 58.0404 33.8984 58.5352 33.8984C58.8867 33.8984 59.1992 33.8854 59.4727 33.8594C59.7591 33.8203 60 33.7812 60.1953 33.7422L60.2148 37.8828C59.7331 38.0391 59.2122 38.1628 58.6523 38.2539C58.0924 38.3451 57.474 38.3906 56.7969 38.3906C55.5599 38.3906 54.4792 38.1888 53.5547 37.7852C52.6432 37.3685 51.9401 36.7044 51.4453 35.793C50.9505 34.8815 50.7031 33.6836 50.7031 32.1992V11.6523ZM68.7891 21.4766V38H63.1641V16.8672H68.457L68.7891 21.4766ZM75.1562 16.7305L75.0586 21.9453C74.7852 21.9062 74.4531 21.8737 74.0625 21.8477C73.6849 21.8086 73.3398 21.7891 73.0273 21.7891C72.2331 21.7891 71.543 21.8932 70.957 22.1016C70.3841 22.2969 69.9023 22.5898 69.5117 22.9805C69.1341 23.3711 68.8477 23.8464 68.6523 24.4062C68.4701 24.9661 68.3659 25.6042 68.3398 26.3203L67.207 25.9688C67.207 24.6016 67.3438 23.3451 67.6172 22.1992C67.8906 21.0404 68.2878 20.0312 68.8086 19.1719C69.3424 18.3125 69.9935 17.6484 70.7617 17.1797C71.5299 16.7109 72.4089 16.4766 73.3984 16.4766C73.7109 16.4766 74.0299 16.5026 74.3555 16.5547C74.681 16.5938 74.9479 16.6523 75.1562 16.7305Z" fill="#454144"/>
<path d="M128.06 24.5V36.2C126.593 37.28 125.027 38.0733 123.36 38.58C121.707 39.0733 119.933 39.32 118.04 39.32C115.68 39.32 113.54 38.9533 111.62 38.22C109.713 37.4867 108.08 36.4667 106.72 35.16C105.373 33.8533 104.333 32.2933 103.6 30.48C102.867 28.6667 102.5 26.6867 102.5 24.54C102.5 22.3667 102.853 20.3733 103.56 18.56C104.267 16.7467 105.267 15.1867 106.56 13.88C107.867 12.5733 109.447 11.56 111.3 10.84C113.153 10.12 115.233 9.76 117.54 9.76C118.713 9.76 119.807 9.85333 120.82 10.04C121.847 10.2267 122.793 10.4867 123.66 10.82C124.54 11.14 125.34 11.5333 126.06 12C126.78 12.4667 127.44 12.98 128.04 13.54L126.5 15.98C126.26 16.3667 125.947 16.6067 125.56 16.7C125.173 16.78 124.753 16.68 124.3 16.4C123.86 16.1467 123.42 15.8933 122.98 15.64C122.54 15.3867 122.047 15.1667 121.5 14.98C120.967 14.7933 120.36 14.64 119.68 14.52C119.013 14.4 118.24 14.34 117.36 14.34C115.933 14.34 114.64 14.58 113.48 15.06C112.333 15.54 111.353 16.2267 110.54 17.12C109.727 18.0133 109.1 19.0867 108.66 20.34C108.22 21.5933 108 22.9933 108 24.54C108 26.1933 108.233 27.6733 108.7 28.98C109.18 30.2733 109.847 31.3733 110.7 32.28C111.567 33.1733 112.607 33.86 113.82 34.34C115.033 34.8067 116.387 35.04 117.88 35.04C118.947 35.04 119.9 34.9267 120.74 34.7C121.58 34.4733 122.4 34.1667 123.2 33.78V28.54H119.56C119.213 28.54 118.94 28.4467 118.74 28.26C118.553 28.06 118.46 27.82 118.46 27.54V24.5H128.06ZM143.225 30.24C141.799 30.3067 140.599 30.4333 139.625 30.62C138.652 30.7933 137.872 31.02 137.285 31.3C136.699 31.58 136.279 31.9067 136.025 32.28C135.772 32.6533 135.645 33.06 135.645 33.5C135.645 34.3667 135.899 34.9867 136.405 35.36C136.925 35.7333 137.599 35.92 138.425 35.92C139.439 35.92 140.312 35.74 141.045 35.38C141.792 35.0067 142.519 34.4467 143.225 33.7V30.24ZM131.905 21.34C134.265 19.18 137.105 18.1 140.425 18.1C141.625 18.1 142.699 18.3 143.645 18.7C144.592 19.0867 145.392 19.6333 146.045 20.34C146.699 21.0333 147.192 21.8667 147.525 22.84C147.872 23.8133 148.045 24.88 148.045 26.04V39H145.805C145.339 39 144.979 38.9333 144.725 38.8C144.472 38.6533 144.272 38.3667 144.125 37.94L143.685 36.46C143.165 36.9267 142.659 37.34 142.165 37.7C141.672 38.0467 141.159 38.34 140.625 38.58C140.092 38.82 139.519 39 138.905 39.12C138.305 39.2533 137.639 39.32 136.905 39.32C136.039 39.32 135.239 39.2067 134.505 38.98C133.772 38.74 133.139 38.3867 132.605 37.92C132.072 37.4533 131.659 36.8733 131.365 36.18C131.072 35.4867 130.925 34.68 130.925 33.76C130.925 33.24 131.012 32.7267 131.185 32.22C131.359 31.7 131.639 31.2067 132.025 30.74C132.425 30.2733 132.939 29.8333 133.565 29.42C134.192 29.0067 134.959 28.6467 135.865 28.34C136.785 28.0333 137.852 27.7867 139.065 27.6C140.279 27.4 141.665 27.28 143.225 27.24V26.04C143.225 24.6667 142.932 23.6533 142.345 23C141.759 22.3333 140.912 22 139.805 22C139.005 22 138.339 22.0933 137.805 22.28C137.285 22.4667 136.825 22.68 136.425 22.92C136.025 23.1467 135.659 23.3533 135.325 23.54C135.005 23.7267 134.645 23.82 134.245 23.82C133.899 23.82 133.605 23.7333 133.365 23.56C133.125 23.3733 132.932 23.16 132.785 22.92L131.905 21.34ZM157.698 9.28V39H152.758V9.28H157.698ZM173.46 30.24C172.033 30.3067 170.833 30.4333 169.86 30.62C168.886 30.7933 168.106 31.02 167.52 31.3C166.933 31.58 166.513 31.9067 166.26 32.28C166.006 32.6533 165.88 33.06 165.88 33.5C165.88 34.3667 166.133 34.9867 166.64 35.36C167.16 35.7333 167.833 35.92 168.66 35.92C169.673 35.92 170.546 35.74 171.28 35.38C172.026 35.0067 172.753 34.4467 173.46 33.7V30.24ZM162.14 21.34C164.5 19.18 167.34 18.1 170.66 18.1C171.86 18.1 172.933 18.3 173.88 18.7C174.826 19.0867 175.626 19.6333 176.28 20.34C176.933 21.0333 177.426 21.8667 177.76 22.84C178.106 23.8133 178.28 24.88 178.28 26.04V39H176.04C175.573 39 175.213 38.9333 174.96 38.8C174.706 38.6533 174.506 38.3667 174.36 37.94L173.92 36.46C173.4 36.9267 172.893 37.34 172.4 37.7C171.906 38.0467 171.393 38.34 170.86 38.58C170.326 38.82 169.753 39 169.14 39.12C168.54 39.2533 167.873 39.32 167.14 39.32C166.273 39.32 165.473 39.2067 164.74 38.98C164.006 38.74 163.373 38.3867 162.84 37.92C162.306 37.4533 161.893 36.8733 161.6 36.18C161.306 35.4867 161.16 34.68 161.16 33.76C161.16 33.24 161.246 32.7267 161.42 32.22C161.593 31.7 161.873 31.2067 162.26 30.74C162.66 30.2733 163.173 29.8333 163.8 29.42C164.426 29.0067 165.193 28.6467 166.1 28.34C167.02 28.0333 168.086 27.7867 169.3 27.6C170.513 27.4 171.9 27.28 173.46 27.24V26.04C173.46 24.6667 173.166 23.6533 172.58 23C171.993 22.3333 171.146 22 170.04 22C169.24 22 168.573 22.0933 168.04 22.28C167.52 22.4667 167.06 22.68 166.66 22.92C166.26 23.1467 165.893 23.3533 165.56 23.54C165.24 23.7267 164.88 23.82 164.48 23.82C164.133 23.82 163.84 23.7333 163.6 23.56C163.36 23.3733 163.166 23.16 163.02 22.92L162.14 21.34ZM187.872 9.28V26.3H188.792C189.126 26.3 189.386 26.26 189.572 26.18C189.772 26.0867 189.972 25.9067 190.172 25.64L195.272 19.34C195.486 19.06 195.719 18.8467 195.972 18.7C196.239 18.5533 196.579 18.48 196.992 18.48H201.512L195.132 26.1C194.679 26.7 194.186 27.16 193.652 27.48C193.932 27.68 194.179 27.9133 194.392 28.18C194.619 28.4467 194.832 28.7333 195.032 29.04L201.872 39H197.412C197.026 39 196.692 38.94 196.412 38.82C196.132 38.6867 195.899 38.4533 195.712 38.12L190.472 30.34C190.286 30.0333 190.092 29.8333 189.892 29.74C189.692 29.6467 189.392 29.6 188.992 29.6H187.872V39H182.932V9.28H187.872ZM216.819 22.48C216.686 22.6933 216.546 22.8467 216.399 22.94C216.253 23.02 216.066 23.06 215.839 23.06C215.599 23.06 215.339 22.9933 215.059 22.86C214.793 22.7267 214.479 22.58 214.119 22.42C213.759 22.2467 213.346 22.0933 212.879 21.96C212.426 21.8267 211.886 21.76 211.259 21.76C210.286 21.76 209.519 21.9667 208.959 22.38C208.413 22.7933 208.139 23.3333 208.139 24C208.139 24.44 208.279 24.8133 208.559 25.12C208.853 25.4133 209.233 25.6733 209.699 25.9C210.179 26.1267 210.719 26.3333 211.319 26.52C211.919 26.6933 212.526 26.8867 213.139 27.1C213.766 27.3133 214.379 27.56 214.979 27.84C215.579 28.1067 216.113 28.4533 216.579 28.88C217.059 29.2933 217.439 29.7933 217.719 30.38C218.013 30.9667 218.159 31.6733 218.159 32.5C218.159 33.4867 217.979 34.4 217.619 35.24C217.273 36.0667 216.753 36.7867 216.059 37.4C215.366 38 214.506 38.4733 213.479 38.82C212.466 39.1533 211.293 39.32 209.959 39.32C209.253 39.32 208.559 39.2533 207.879 39.12C207.213 39 206.566 38.8267 205.939 38.6C205.326 38.3733 204.753 38.1067 204.219 37.8C203.699 37.4933 203.239 37.16 202.839 36.8L203.979 34.92C204.126 34.6933 204.299 34.52 204.499 34.4C204.699 34.28 204.953 34.22 205.259 34.22C205.566 34.22 205.853 34.3067 206.119 34.48C206.399 34.6533 206.719 34.84 207.079 35.04C207.439 35.24 207.859 35.4267 208.339 35.6C208.833 35.7733 209.453 35.86 210.199 35.86C210.786 35.86 211.286 35.7933 211.699 35.66C212.126 35.5133 212.473 35.3267 212.739 35.1C213.019 34.8733 213.219 34.6133 213.339 34.32C213.473 34.0133 213.539 33.7 213.539 33.38C213.539 32.9 213.393 32.5067 213.099 32.2C212.819 31.8933 212.439 31.6267 211.959 31.4C211.493 31.1733 210.953 30.9733 210.339 30.8C209.739 30.6133 209.119 30.4133 208.479 30.2C207.853 29.9867 207.233 29.74 206.619 29.46C206.019 29.1667 205.479 28.8 204.999 28.36C204.533 27.92 204.153 27.38 203.859 26.74C203.579 26.1 203.439 25.3267 203.439 24.42C203.439 23.58 203.606 22.78 203.939 22.02C204.273 21.26 204.759 20.6 205.399 20.04C206.053 19.4667 206.859 19.0133 207.819 18.68C208.793 18.3333 209.913 18.16 211.179 18.16C212.593 18.16 213.879 18.3933 215.039 18.86C216.199 19.3267 217.166 19.94 217.939 20.7L216.819 22.48ZM226.998 18.48V39H222.038V18.48H226.998ZM227.678 12.5C227.678 12.9267 227.591 13.3267 227.418 13.7C227.244 14.0733 227.011 14.4 226.718 14.68C226.438 14.96 226.104 15.1867 225.718 15.36C225.331 15.52 224.918 15.6 224.478 15.6C224.051 15.6 223.644 15.52 223.258 15.36C222.884 15.1867 222.558 14.96 222.278 14.68C221.998 14.4 221.771 14.0733 221.598 13.7C221.438 13.3267 221.358 12.9267 221.358 12.5C221.358 12.06 221.438 11.6467 221.598 11.26C221.771 10.8733 221.998 10.54 222.278 10.26C222.558 9.98 222.884 9.76 223.258 9.6C223.644 9.42667 224.051 9.34 224.478 9.34C224.918 9.34 225.331 9.42667 225.718 9.6C226.104 9.76 226.438 9.98 226.718 10.26C227.011 10.54 227.244 10.8733 227.418 11.26C227.591 11.6467 227.678 12.06 227.678 12.5ZM237.154 18.48V39.7C237.154 40.5933 237.034 41.4333 236.794 42.22C236.567 43.0067 236.194 43.6933 235.674 44.28C235.167 44.88 234.494 45.3467 233.654 45.68C232.827 46.0267 231.814 46.2 230.614 46.2C230.147 46.2 229.714 46.1667 229.314 46.1C228.914 46.0467 228.5 45.9533 228.074 45.82L228.254 43.16C228.294 42.8933 228.4 42.72 228.574 42.64C228.747 42.5733 229.08 42.54 229.574 42.54C230.067 42.54 230.48 42.4867 230.814 42.38C231.16 42.2867 231.434 42.1267 231.634 41.9C231.834 41.6867 231.974 41.4 232.054 41.04C232.147 40.68 232.194 40.2333 232.194 39.7V18.48H237.154ZM237.834 12.5C237.834 12.9267 237.747 13.3267 237.574 13.7C237.4 14.0733 237.167 14.4 236.874 14.68C236.594 14.96 236.254 15.1867 235.854 15.36C235.467 15.52 235.054 15.6 234.614 15.6C234.187 15.6 233.787 15.52 233.414 15.36C233.04 15.1867 232.714 14.96 232.434 14.68C232.154 14.4 231.927 14.0733 231.754 13.7C231.594 13.3267 231.514 12.9267 231.514 12.5C231.514 12.06 231.594 11.6467 231.754 11.26C231.927 10.8733 232.154 10.54 232.434 10.26C232.714 9.98 233.04 9.76 233.414 9.6C233.787 9.42667 234.187 9.34 234.614 9.34C235.054 9.34 235.467 9.42667 235.854 9.6C236.254 9.76 236.594 9.98 236.874 10.26C237.167 10.54 237.4 10.8733 237.574 11.26C237.747 11.6467 237.834 12.06 237.834 12.5ZM253.03 30.24C251.603 30.3067 250.403 30.4333 249.43 30.62C248.457 30.7933 247.677 31.02 247.09 31.3C246.503 31.58 246.083 31.9067 245.83 32.28C245.577 32.6533 245.45 33.06 245.45 33.5C245.45 34.3667 245.703 34.9867 246.21 35.36C246.73 35.7333 247.403 35.92 248.23 35.92C249.243 35.92 250.117 35.74 250.85 35.38C251.597 35.0067 252.323 34.4467 253.03 33.7V30.24ZM241.71 21.34C244.07 19.18 246.91 18.1 250.23 18.1C251.43 18.1 252.503 18.3 253.45 18.7C254.397 19.0867 255.197 19.6333 255.85 20.34C256.503 21.0333 256.997 21.8667 257.33 22.84C257.677 23.8133 257.85 24.88 257.85 26.04V39H255.61C255.143 39 254.783 38.9333 254.53 38.8C254.277 38.6533 254.077 38.3667 253.93 37.94L253.49 36.46C252.97 36.9267 252.463 37.34 251.97 37.7C251.477 38.0467 250.963 38.34 250.43 38.58C249.897 38.82 249.323 39 248.71 39.12C248.11 39.2533 247.443 39.32 246.71 39.32C245.843 39.32 245.043 39.2067 244.31 38.98C243.577 38.74 242.943 38.3867 242.41 37.92C241.877 37.4533 241.463 36.8733 241.17 36.18C240.877 35.4867 240.73 34.68 240.73 33.76C240.73 33.24 240.817 32.7267 240.99 32.22C241.163 31.7 241.443 31.2067 241.83 30.74C242.23 30.2733 242.743 29.8333 243.37 29.42C243.997 29.0067 244.763 28.6467 245.67 28.34C246.59 28.0333 247.657 27.7867 248.87 27.6C250.083 27.4 251.47 27.28 253.03 27.24V26.04C253.03 24.6667 252.737 23.6533 252.15 23C251.563 22.3333 250.717 22 249.61 22C248.81 22 248.143 22.0933 247.61 22.28C247.09 22.4667 246.63 22.68 246.23 22.92C245.83 23.1467 245.463 23.3533 245.13 23.54C244.81 23.7267 244.45 23.82 244.05 23.82C243.703 23.82 243.41 23.7333 243.17 23.56C242.93 23.3733 242.737 23.16 242.59 22.92L241.71 21.34Z" fill="#CF9AC6"/>
</svg>
